G04*
G04 #@! TF.GenerationSoftware,Altium Limited,Altium Designer,20.2.7 (254)*
G04*
G04 Layer_Physical_Order=1*
G04 Layer_Color=255*
%FSLAX25Y25*%
%MOIN*%
G70*
G04*
G04 #@! TF.SameCoordinates,07DD798B-C11C-458A-AB0E-1EECFAB96A1D*
G04*
G04*
G04 #@! TF.FilePolarity,Positive*
G04*
G01*
G75*
%ADD10C,0.01000*%
%ADD11C,0.00787*%
%ADD12C,0.00500*%
%ADD13C,0.00000*%
%ADD14C,0.00197*%
%ADD22C,0.03937*%
%ADD23C,0.01968*%
%ADD24C,0.01500*%
%ADD25O,0.09843X0.04724*%
%ADD26R,0.09843X0.04724*%
%ADD27C,0.04724*%
%ADD28O,0.10299X0.05150*%
%ADD29O,0.05150X0.10299*%
%ADD30R,0.09449X0.09449*%
%ADD31C,0.09449*%
G36*
X489704Y403081D02*
X481307Y394685D01*
X472903Y403081D01*
X473095Y403543D01*
X489512D01*
X489704Y403081D01*
D02*
G37*
G36*
X481299Y394685D02*
Y385516D01*
X480811Y385408D01*
X473038Y402250D01*
X473448Y402536D01*
X481299Y394685D01*
D02*
G37*
G36*
X255906Y374016D02*
X260300Y378410D01*
X260885Y378288D01*
X261277Y377340D01*
X262098Y376271D01*
X263167Y375451D01*
X264412Y374935D01*
X265748Y374759D01*
X267084Y374935D01*
X267618Y375156D01*
X281496D01*
X282729Y375318D01*
X283879Y375795D01*
X284865Y376552D01*
X302015Y393701D01*
X458817D01*
Y375886D01*
X458596Y375352D01*
X458420Y374016D01*
X458596Y372680D01*
X458817Y372146D01*
Y370087D01*
X458980Y368854D01*
X459456Y367705D01*
X460213Y366718D01*
X466127Y360804D01*
X467114Y360047D01*
X468264Y359570D01*
X469497Y359408D01*
X483408D01*
X484642Y359570D01*
X485791Y360047D01*
X486778Y360804D01*
X486899Y360925D01*
X487361Y360734D01*
Y330610D01*
X487140Y330076D01*
X486964Y328740D01*
X487140Y327404D01*
X487655Y326159D01*
X488476Y325090D01*
X489545Y324270D01*
X490790Y323754D01*
X492126Y323578D01*
X493462Y323754D01*
X494707Y324270D01*
X495776Y325090D01*
X496597Y326159D01*
X497112Y327404D01*
X497288Y328740D01*
X497112Y330076D01*
X496891Y330610D01*
Y361452D01*
X513548Y378109D01*
X525880D01*
X528447Y375542D01*
X528517Y375372D01*
X529338Y374303D01*
X530407Y373482D01*
X531305Y373110D01*
X533769Y370646D01*
X534756Y369889D01*
X535905Y369413D01*
X537138Y369251D01*
X549311D01*
X549845Y369029D01*
X551181Y368853D01*
X552517Y369029D01*
X553762Y369545D01*
X554831Y370366D01*
X555652Y371435D01*
X556168Y372680D01*
X556343Y374016D01*
X556168Y375352D01*
X555652Y376597D01*
X554831Y377666D01*
X553762Y378486D01*
X552517Y379002D01*
X551181Y379178D01*
X549845Y379002D01*
X549311Y378781D01*
X539112D01*
X537529Y380364D01*
X537459Y380534D01*
X536638Y381603D01*
X535569Y382423D01*
X534671Y382795D01*
X531223Y386244D01*
X530236Y387001D01*
X529087Y387477D01*
X527854Y387639D01*
X513444D01*
X512910Y387860D01*
X511574Y388036D01*
X510238Y387860D01*
X508993Y387345D01*
X507924Y386524D01*
X507103Y385455D01*
X506882Y384921D01*
X497353Y375392D01*
X496891Y375583D01*
Y391727D01*
X498865Y393701D01*
X570866D01*
Y310041D01*
X565453D01*
X564919Y310262D01*
X563583Y310438D01*
X558465D01*
X557128Y310262D01*
X555883Y309746D01*
X554814Y308926D01*
X553994Y307857D01*
X553478Y306612D01*
X553302Y305276D01*
X553478Y303940D01*
X553994Y302695D01*
X554814Y301625D01*
X555883Y300805D01*
X556508Y300546D01*
Y300005D01*
X555883Y299746D01*
X554814Y298926D01*
X553994Y297857D01*
X553478Y296612D01*
X553302Y295276D01*
X553478Y293939D01*
X553994Y292694D01*
X554814Y291625D01*
X555883Y290805D01*
X557128Y290289D01*
X558465Y290113D01*
X563583D01*
X564919Y290289D01*
X565352Y290469D01*
X565635Y290045D01*
X555946Y280356D01*
X532480D01*
X531247Y280193D01*
X530098Y279717D01*
X529111Y278960D01*
X520591Y270440D01*
X520057Y270219D01*
X518988Y269398D01*
X518167Y268329D01*
X517662Y267109D01*
X517527Y266933D01*
X517051Y265784D01*
X517046Y265748D01*
X479833D01*
X479642Y266210D01*
X495496Y282064D01*
X496253Y283050D01*
X496729Y284200D01*
X496891Y285433D01*
Y298994D01*
X498407Y300510D01*
X526107D01*
X526200Y300043D01*
X526193Y300005D01*
X525568Y299746D01*
X524499Y298926D01*
X523679Y297857D01*
X523163Y296612D01*
X522987Y295276D01*
X523163Y293939D01*
X523679Y292694D01*
X524499Y291625D01*
X525568Y290805D01*
X526814Y290289D01*
X528150Y290113D01*
X533268D01*
X534604Y290289D01*
X535849Y290805D01*
X536918Y291625D01*
X537738Y292694D01*
X538254Y293939D01*
X538430Y295276D01*
X538254Y296612D01*
X537738Y297857D01*
X536918Y298926D01*
X535849Y299746D01*
X535224Y300005D01*
Y300546D01*
X535849Y300805D01*
X536918Y301625D01*
X537738Y302695D01*
X538254Y303940D01*
X538430Y305276D01*
X538254Y306612D01*
X537738Y307857D01*
X536918Y308926D01*
X535849Y309746D01*
X535224Y310005D01*
Y310546D01*
X535849Y310805D01*
X536918Y311625D01*
X537738Y312695D01*
X538254Y313939D01*
X538430Y315276D01*
X538254Y316612D01*
X537738Y317857D01*
X536918Y318926D01*
X535964Y319657D01*
X536099Y320158D01*
X538386D01*
Y330394D01*
X523032D01*
Y320158D01*
X525318D01*
X525453Y319657D01*
X524499Y318926D01*
X523679Y317857D01*
X523163Y316612D01*
X522987Y315276D01*
X523163Y313939D01*
X523679Y312695D01*
X524499Y311625D01*
X525568Y310805D01*
X526193Y310546D01*
X526200Y310508D01*
X526107Y310041D01*
X496434D01*
X495200Y309878D01*
X494051Y309402D01*
X493064Y308645D01*
X490443Y306024D01*
X489545Y305652D01*
X488476Y304831D01*
X487655Y303762D01*
X487140Y302517D01*
X486964Y301181D01*
X487140Y299845D01*
X487361Y299311D01*
Y287407D01*
X469071Y269117D01*
X468314Y268131D01*
X467838Y266981D01*
X467676Y265748D01*
X344488D01*
X324803Y246063D01*
X318742D01*
Y248643D01*
X318579Y249876D01*
X318103Y251026D01*
X317346Y252012D01*
X311526Y257833D01*
X311320Y258329D01*
X310500Y259398D01*
X309431Y260219D01*
X308186Y260734D01*
X306849Y260910D01*
X301731D01*
X300395Y260734D01*
X299150Y260219D01*
X298081Y259398D01*
X297261Y258329D01*
X296745Y257084D01*
X296569Y255748D01*
X296745Y254412D01*
X297261Y253167D01*
X298081Y252098D01*
X299150Y251277D01*
X299775Y251019D01*
Y250477D01*
X299150Y250219D01*
X298081Y249398D01*
X297261Y248329D01*
X296745Y247084D01*
X296610Y246063D01*
X281655D01*
X281521Y247084D01*
X281005Y248329D01*
X280185Y249398D01*
X279116Y250219D01*
X278491Y250477D01*
Y251019D01*
X279116Y251277D01*
X280185Y252098D01*
X281005Y253167D01*
X281521Y254412D01*
X281697Y255748D01*
X281521Y257084D01*
X281005Y258329D01*
X280185Y259398D01*
X279116Y260219D01*
X278491Y260477D01*
Y261019D01*
X279116Y261277D01*
X280185Y262098D01*
X281005Y263167D01*
X281521Y264412D01*
X281697Y265748D01*
X281521Y267084D01*
X281005Y268329D01*
X280185Y269398D01*
X279231Y270130D01*
X279366Y270630D01*
X281652D01*
Y280866D01*
X266298D01*
Y270630D01*
X268585D01*
X268720Y270130D01*
X267766Y269398D01*
X266946Y268329D01*
X266430Y267084D01*
X266254Y265748D01*
X266430Y264412D01*
X266946Y263167D01*
X267766Y262098D01*
X268835Y261277D01*
X269460Y261019D01*
Y260477D01*
X268835Y260219D01*
X267766Y259398D01*
X266946Y258329D01*
X266430Y257084D01*
X266254Y255748D01*
X266430Y254412D01*
X266946Y253167D01*
X267766Y252098D01*
X268835Y251277D01*
X269460Y251019D01*
Y250477D01*
X268835Y250219D01*
X267766Y249398D01*
X266946Y248329D01*
X266430Y247084D01*
X266296Y246063D01*
X262645D01*
X241970Y266738D01*
Y273721D01*
X242191Y274254D01*
X242367Y275590D01*
X242191Y276927D01*
X241675Y278172D01*
X240855Y279241D01*
X239786Y280061D01*
X238541Y280577D01*
X237205Y280753D01*
X235869Y280577D01*
X234624Y280061D01*
X233554Y279241D01*
X232734Y278172D01*
X232218Y276927D01*
X232043Y275590D01*
X232218Y274254D01*
X232439Y273721D01*
Y264764D01*
X232602Y263530D01*
X233078Y262381D01*
X233835Y261394D01*
X248705Y246525D01*
X248513Y246063D01*
X181930Y246063D01*
Y255020D01*
X182152Y255554D01*
X182328Y256890D01*
X182152Y258226D01*
X181636Y259471D01*
X180816Y260540D01*
X179746Y261360D01*
X178501Y261876D01*
X177165Y262052D01*
X175829Y261876D01*
X174584Y261360D01*
X173515Y260540D01*
X172695Y259471D01*
X172179Y258226D01*
X172003Y256890D01*
X172179Y255554D01*
X172400Y255020D01*
Y246063D01*
X127953D01*
Y423228D01*
X206693D01*
X255906Y374016D01*
D02*
G37*
%LPC*%
G36*
X144201Y416711D02*
Y413886D01*
X147026D01*
X146976Y414263D01*
X146638Y415081D01*
X146099Y415784D01*
X145396Y416323D01*
X144579Y416662D01*
X144201Y416711D01*
D02*
G37*
G36*
X143201D02*
X142823Y416662D01*
X142005Y416323D01*
X141303Y415784D01*
X140764Y415081D01*
X140425Y414263D01*
X140375Y413886D01*
X143201D01*
Y416711D01*
D02*
G37*
G36*
X147026Y412886D02*
X144201D01*
Y410060D01*
X144579Y410110D01*
X145396Y410449D01*
X146099Y410988D01*
X146638Y411690D01*
X146976Y412508D01*
X147026Y412886D01*
D02*
G37*
G36*
X143201D02*
X140375D01*
X140425Y412508D01*
X140764Y411690D01*
X141303Y410988D01*
X142005Y410449D01*
X142823Y410110D01*
X143201Y410060D01*
Y412886D01*
D02*
G37*
G36*
X143717Y397063D02*
X138295D01*
Y394201D01*
X143717D01*
Y397063D01*
D02*
G37*
G36*
X137295D02*
X131874D01*
Y394201D01*
X137295D01*
Y397063D01*
D02*
G37*
G36*
X143717Y393201D02*
X138295D01*
Y390339D01*
X143717D01*
Y393201D01*
D02*
G37*
G36*
X137295D02*
X131874D01*
Y390339D01*
X137295D01*
Y393201D01*
D02*
G37*
G36*
X189119Y395384D02*
X187783Y395208D01*
X186537Y394692D01*
X185468Y393872D01*
X184648Y392803D01*
X184132Y391558D01*
X183956Y390222D01*
X184132Y388886D01*
X184648Y387641D01*
X185468Y386572D01*
X186537Y385751D01*
X187783Y385236D01*
X189119Y385060D01*
X190455Y385236D01*
X191700Y385751D01*
X192769Y386572D01*
X193589Y387641D01*
X194105Y388886D01*
X194281Y390222D01*
X194105Y391558D01*
X193589Y392803D01*
X192769Y393872D01*
X191700Y394692D01*
X190455Y395208D01*
X189119Y395384D01*
D02*
G37*
G36*
X140354Y389020D02*
X135236D01*
X133900Y388845D01*
X132655Y388329D01*
X131586Y387509D01*
X130766Y386439D01*
X130250Y385194D01*
X130074Y383858D01*
X130250Y382522D01*
X130766Y381277D01*
X131586Y380208D01*
X132655Y379388D01*
X133900Y378872D01*
X135236Y378696D01*
X140354D01*
X141690Y378872D01*
X142936Y379388D01*
X144005Y380208D01*
X144825Y381277D01*
X145341Y382522D01*
X145517Y383858D01*
X145341Y385194D01*
X144825Y386439D01*
X144005Y387509D01*
X142936Y388329D01*
X141690Y388845D01*
X140354Y389020D01*
D02*
G37*
G36*
X393701Y381147D02*
X392365Y380971D01*
X391120Y380455D01*
X390051Y379634D01*
X389230Y378565D01*
X388714Y377320D01*
X388539Y375984D01*
X388714Y374648D01*
X389230Y373403D01*
X390051Y372334D01*
X391120Y371514D01*
X392365Y370998D01*
X393701Y370822D01*
X395037Y370998D01*
X396282Y371514D01*
X397351Y372334D01*
X398171Y373403D01*
X398687Y374648D01*
X398863Y375984D01*
X398687Y377320D01*
X398171Y378565D01*
X397351Y379634D01*
X396282Y380455D01*
X395037Y380971D01*
X393701Y381147D01*
D02*
G37*
G36*
X511574Y370320D02*
X510238Y370144D01*
X508993Y369628D01*
X507924Y368808D01*
X507103Y367739D01*
X506588Y366494D01*
X506412Y365158D01*
X506588Y363821D01*
X507103Y362576D01*
X507924Y361507D01*
X508993Y360687D01*
X510238Y360171D01*
X511574Y359995D01*
X512910Y360171D01*
X514155Y360687D01*
X515224Y361507D01*
X516045Y362576D01*
X516561Y363821D01*
X516736Y365158D01*
X516561Y366494D01*
X516045Y367739D01*
X515224Y368808D01*
X514155Y369628D01*
X512910Y370144D01*
X511574Y370320D01*
D02*
G37*
G36*
X198931Y368410D02*
X197595Y368234D01*
X196350Y367719D01*
X195280Y366898D01*
X194460Y365829D01*
X193944Y364584D01*
X193769Y363248D01*
X193944Y361912D01*
X194460Y360667D01*
X195280Y359598D01*
X196350Y358777D01*
X197595Y358261D01*
X198931Y358086D01*
X200267Y358261D01*
X201512Y358777D01*
X202581Y359598D01*
X203401Y360667D01*
X203917Y361912D01*
X204093Y363248D01*
X203917Y364584D01*
X203401Y365829D01*
X202581Y366898D01*
X201512Y367719D01*
X200267Y368234D01*
X198931Y368410D01*
D02*
G37*
G36*
X551681Y349782D02*
Y346957D01*
X554506D01*
X554457Y347334D01*
X554118Y348152D01*
X553579Y348855D01*
X552877Y349394D01*
X552059Y349732D01*
X551681Y349782D01*
D02*
G37*
G36*
X550681Y349782D02*
X550303Y349732D01*
X549485Y349394D01*
X548783Y348855D01*
X548244Y348152D01*
X547905Y347334D01*
X547856Y346957D01*
X550681D01*
Y349782D01*
D02*
G37*
G36*
X532988Y355556D02*
X531652Y355380D01*
X530407Y354864D01*
X529338Y354044D01*
X528517Y352975D01*
X528002Y351730D01*
X527826Y350394D01*
X528002Y349058D01*
X528517Y347813D01*
X529338Y346743D01*
X530407Y345923D01*
X531652Y345407D01*
X532988Y345231D01*
X534324Y345407D01*
X535569Y345923D01*
X536638Y346743D01*
X537459Y347813D01*
X537975Y349058D01*
X538150Y350394D01*
X537975Y351730D01*
X537459Y352975D01*
X536638Y354044D01*
X535569Y354864D01*
X534324Y355380D01*
X532988Y355556D01*
D02*
G37*
G36*
X554506Y345957D02*
X551681D01*
Y343131D01*
X552059Y343181D01*
X552877Y343520D01*
X553579Y344059D01*
X554118Y344761D01*
X554457Y345579D01*
X554506Y345957D01*
D02*
G37*
G36*
X550681D02*
X547856D01*
X547905Y345579D01*
X548244Y344761D01*
X548783Y344059D01*
X549485Y343520D01*
X550303Y343181D01*
X550681Y343131D01*
Y345957D01*
D02*
G37*
G36*
X171260Y418548D02*
X169924Y418372D01*
X168679Y417857D01*
X167610Y417036D01*
X166789Y415967D01*
X166273Y414722D01*
X166098Y413386D01*
X166273Y412050D01*
X166566Y411344D01*
Y391920D01*
X166416Y391558D01*
X166240Y390222D01*
X166416Y388886D01*
X166622Y388388D01*
Y365155D01*
X166385Y364584D01*
X166209Y363248D01*
X166385Y361912D01*
X166606Y361378D01*
Y344481D01*
X166769Y343248D01*
X167245Y342099D01*
X168002Y341112D01*
X172399Y336715D01*
X172695Y336002D01*
X173515Y334932D01*
X174584Y334112D01*
X175829Y333596D01*
X177165Y333420D01*
X178501Y333596D01*
X179746Y334112D01*
X180816Y334932D01*
X181636Y336002D01*
X182152Y337247D01*
X182328Y338583D01*
X182152Y339919D01*
X181636Y341164D01*
X180816Y342233D01*
X179746Y343053D01*
X179392Y343200D01*
X176137Y346455D01*
Y361378D01*
X176358Y361912D01*
X176534Y363248D01*
X176358Y364584D01*
X176152Y365081D01*
Y388315D01*
X176388Y388886D01*
X176564Y390222D01*
X176388Y391558D01*
X176096Y392264D01*
Y411687D01*
X176246Y412050D01*
X176422Y413386D01*
X176246Y414722D01*
X175731Y415967D01*
X174910Y417036D01*
X173841Y417857D01*
X172596Y418372D01*
X171260Y418548D01*
D02*
G37*
G36*
X563583Y330438D02*
X558465D01*
X557128Y330262D01*
X555883Y329746D01*
X554814Y328926D01*
X553994Y327857D01*
X553478Y326612D01*
X553302Y325276D01*
X553478Y323939D01*
X553994Y322694D01*
X554814Y321625D01*
X555883Y320805D01*
X557128Y320289D01*
X558465Y320113D01*
X563583D01*
X564919Y320289D01*
X566164Y320805D01*
X567233Y321625D01*
X568053Y322694D01*
X568569Y323939D01*
X568745Y325276D01*
X568569Y326612D01*
X568053Y327857D01*
X567233Y328926D01*
X566164Y329746D01*
X564919Y330262D01*
X563583Y330438D01*
D02*
G37*
G36*
Y318667D02*
X561524D01*
Y315776D01*
X566908D01*
X566858Y316153D01*
X566519Y316971D01*
X565981Y317673D01*
X565278Y318213D01*
X564460Y318551D01*
X563583Y318667D01*
D02*
G37*
G36*
X560524D02*
X558465D01*
X557587Y318551D01*
X556769Y318213D01*
X556067Y317673D01*
X555528Y316971D01*
X555189Y316153D01*
X555139Y315776D01*
X560524D01*
Y318667D01*
D02*
G37*
G36*
X566908Y314776D02*
X561524D01*
Y311884D01*
X563583D01*
X564460Y312000D01*
X565278Y312339D01*
X565981Y312878D01*
X566519Y313580D01*
X566858Y314398D01*
X566908Y314776D01*
D02*
G37*
G36*
X560524D02*
X555139D01*
X555189Y314398D01*
X555528Y313580D01*
X556067Y312878D01*
X556769Y312339D01*
X557587Y312000D01*
X558465Y311884D01*
X560524D01*
Y314776D01*
D02*
G37*
G36*
X306849Y280910D02*
X301731D01*
X300395Y280734D01*
X299150Y280219D01*
X298081Y279398D01*
X297261Y278329D01*
X296745Y277084D01*
X296569Y275748D01*
X296745Y274412D01*
X297261Y273167D01*
X298081Y272098D01*
X299150Y271277D01*
X300395Y270762D01*
X301731Y270586D01*
X306849D01*
X308186Y270762D01*
X309431Y271277D01*
X310500Y272098D01*
X311320Y273167D01*
X311836Y274412D01*
X312012Y275748D01*
X311836Y277084D01*
X311320Y278329D01*
X310500Y279398D01*
X309431Y280219D01*
X308186Y280734D01*
X306849Y280910D01*
D02*
G37*
G36*
X254921Y280753D02*
X253585Y280577D01*
X252340Y280061D01*
X251271Y279241D01*
X250451Y278172D01*
X249935Y276927D01*
X249759Y275590D01*
X249935Y274254D01*
X250451Y273009D01*
X251271Y271940D01*
X252340Y271120D01*
X253585Y270604D01*
X254921Y270428D01*
X256257Y270604D01*
X257502Y271120D01*
X258572Y271940D01*
X259392Y273009D01*
X259908Y274254D01*
X260084Y275590D01*
X259908Y276927D01*
X259392Y278172D01*
X258572Y279241D01*
X257502Y280061D01*
X256257Y280577D01*
X254921Y280753D01*
D02*
G37*
G36*
X177165Y316186D02*
X175829Y316010D01*
X174584Y315494D01*
X173515Y314674D01*
X172695Y313605D01*
X172179Y312360D01*
X172003Y311024D01*
X172179Y309687D01*
X172400Y309154D01*
Y276476D01*
X172179Y275942D01*
X172003Y274606D01*
X172179Y273270D01*
X172695Y272025D01*
X173515Y270956D01*
X174584Y270136D01*
X175829Y269620D01*
X177165Y269444D01*
X178501Y269620D01*
X179746Y270136D01*
X180816Y270956D01*
X181636Y272025D01*
X182152Y273270D01*
X182328Y274606D01*
X182152Y275942D01*
X181930Y276476D01*
Y309154D01*
X182152Y309687D01*
X182328Y311024D01*
X182152Y312360D01*
X181636Y313605D01*
X180816Y314674D01*
X179746Y315494D01*
X178501Y316010D01*
X177165Y316186D01*
D02*
G37*
G36*
X306849Y269139D02*
X304790D01*
Y266248D01*
X310175D01*
X310125Y266626D01*
X309786Y267444D01*
X309247Y268146D01*
X308545Y268685D01*
X307727Y269024D01*
X306849Y269139D01*
D02*
G37*
G36*
X303790D02*
X301731D01*
X300853Y269024D01*
X300036Y268685D01*
X299333Y268146D01*
X298794Y267444D01*
X298456Y266626D01*
X298406Y266248D01*
X303790D01*
Y269139D01*
D02*
G37*
G36*
X310175Y265248D02*
X304790D01*
Y262357D01*
X306849D01*
X307727Y262472D01*
X308545Y262811D01*
X309247Y263350D01*
X309786Y264052D01*
X310125Y264870D01*
X310175Y265248D01*
D02*
G37*
G36*
X303790D02*
X298406D01*
X298456Y264870D01*
X298794Y264052D01*
X299333Y263350D01*
X300036Y262811D01*
X300853Y262472D01*
X301731Y262357D01*
X303790D01*
Y265248D01*
D02*
G37*
%LPD*%
D10*
X261807Y68889D02*
X257807D01*
Y70888D01*
X258474Y71555D01*
X259807D01*
X260473Y70888D01*
Y68889D01*
X258474Y75554D02*
X257807Y74888D01*
Y73555D01*
X258474Y72888D01*
X261140D01*
X261807Y73555D01*
Y74888D01*
X261140Y75554D01*
X257807Y76888D02*
X261807D01*
Y78887D01*
X261140Y79554D01*
X260473D01*
X259807Y78887D01*
Y76888D01*
Y78887D01*
X259140Y79554D01*
X258474D01*
X257807Y78887D01*
Y76888D01*
X261807Y86886D02*
Y85553D01*
X261140Y84886D01*
X259807D01*
X259140Y85553D01*
Y86886D01*
X259807Y87553D01*
X260473D01*
Y84886D01*
X257807Y91552D02*
X261807D01*
Y89552D01*
X261140Y88886D01*
X259807D01*
X259140Y89552D01*
Y91552D01*
X263140Y94218D02*
Y94885D01*
X262473Y95552D01*
X259140D01*
Y93552D01*
X259807Y92885D01*
X261140D01*
X261807Y93552D01*
Y95552D01*
Y98884D02*
Y97551D01*
X261140Y96885D01*
X259807D01*
X259140Y97551D01*
Y98884D01*
X259807Y99551D01*
X260473D01*
Y96885D01*
X192909Y68889D02*
X188909D01*
Y70888D01*
X189576Y71555D01*
X190909D01*
X191576Y70888D01*
Y68889D01*
X189576Y75554D02*
X188909Y74888D01*
Y73555D01*
X189576Y72888D01*
X192242D01*
X192909Y73555D01*
Y74888D01*
X192242Y75554D01*
X188909Y76888D02*
X192909D01*
Y78887D01*
X192242Y79554D01*
X191576D01*
X190909Y78887D01*
Y76888D01*
Y78887D01*
X190243Y79554D01*
X189576D01*
X188909Y78887D01*
Y76888D01*
X192909Y86886D02*
Y85553D01*
X192242Y84886D01*
X190909D01*
X190243Y85553D01*
Y86886D01*
X190909Y87553D01*
X191576D01*
Y84886D01*
X188909Y91552D02*
X192909D01*
Y89552D01*
X192242Y88886D01*
X190909D01*
X190243Y89552D01*
Y91552D01*
X194242Y94218D02*
Y94885D01*
X193576Y95552D01*
X190243D01*
Y93552D01*
X190909Y92885D01*
X192242D01*
X192909Y93552D01*
Y95552D01*
Y98884D02*
Y97551D01*
X192242Y96885D01*
X190909D01*
X190243Y97551D01*
Y98884D01*
X190909Y99551D01*
X191576D01*
Y96885D01*
X124011Y68889D02*
X120012D01*
Y70888D01*
X120678Y71555D01*
X122012D01*
X122678Y70888D01*
Y68889D01*
X120678Y75554D02*
X120012Y74888D01*
Y73555D01*
X120678Y72888D01*
X123345D01*
X124011Y73555D01*
Y74888D01*
X123345Y75554D01*
X120012Y76888D02*
X124011D01*
Y78887D01*
X123345Y79554D01*
X122678D01*
X122012Y78887D01*
Y76888D01*
Y78887D01*
X121345Y79554D01*
X120678D01*
X120012Y78887D01*
Y76888D01*
X124011Y86886D02*
Y85553D01*
X123345Y84886D01*
X122012D01*
X121345Y85553D01*
Y86886D01*
X122012Y87553D01*
X122678D01*
Y84886D01*
X120012Y91552D02*
X124011D01*
Y89552D01*
X123345Y88886D01*
X122012D01*
X121345Y89552D01*
Y91552D01*
X125345Y94218D02*
Y94885D01*
X124678Y95552D01*
X121345D01*
Y93552D01*
X122012Y92885D01*
X123345D01*
X124011Y93552D01*
Y95552D01*
Y98884D02*
Y97551D01*
X123345Y96885D01*
X122012D01*
X121345Y97551D01*
Y98884D01*
X122012Y99551D01*
X122678D01*
Y96885D01*
D11*
X682992Y117953D02*
G03*
X682992Y117953I-394J0D01*
G01*
D12*
X261811Y104331D02*
Y147638D01*
X309055D01*
Y104331D02*
Y147638D01*
X261811Y104331D02*
X267717D01*
Y100394D02*
Y104331D01*
Y100394D02*
X277559D01*
Y105118D01*
X293307D01*
Y100394D02*
Y105118D01*
Y100394D02*
X303150D01*
Y104331D01*
X309055D01*
X192913D02*
Y147638D01*
X240158D01*
Y104331D02*
Y147638D01*
X192913Y104331D02*
X198819D01*
Y100394D02*
Y104331D01*
Y100394D02*
X208661D01*
Y105118D01*
X224410D01*
Y100394D02*
Y105118D01*
Y100394D02*
X234252D01*
Y104331D01*
X240158D01*
X679134Y101575D02*
Y199213D01*
X600394D02*
X679134D01*
X600394Y101575D02*
Y199213D01*
Y101575D02*
X617889D01*
Y68504D02*
Y101575D01*
Y68504D02*
X661639D01*
Y101575D01*
X679134D01*
X617889D02*
X661639D01*
X124016Y104331D02*
Y147638D01*
X171260D01*
Y104331D02*
Y147638D01*
X124016Y104331D02*
X129921D01*
Y100394D02*
Y104331D01*
Y100394D02*
X139764D01*
Y105118D01*
X155512D01*
Y100394D02*
Y105118D01*
Y100394D02*
X165354D01*
Y104331D01*
X171260D01*
D13*
X261811Y100394D02*
X277559D01*
Y105118D01*
X293307D01*
Y100394D02*
Y105118D01*
Y100394D02*
X309055D01*
X192913D02*
X208661D01*
Y105118D01*
X224410D01*
Y100394D02*
Y105118D01*
Y100394D02*
X240158D01*
X124016D02*
X139764D01*
Y105118D01*
X155512D01*
Y100394D02*
Y105118D01*
Y100394D02*
X171260D01*
D14*
X260827Y148622D02*
X310039D01*
Y99410D02*
Y148622D01*
X260827Y99410D02*
X310039D01*
X260827D02*
Y148622D01*
X191929D02*
X241142D01*
Y99410D02*
Y148622D01*
X191929Y99410D02*
X241142D01*
X191929D02*
Y148622D01*
X680118Y100591D02*
Y200197D01*
X599409D02*
X680118D01*
X599409Y100591D02*
Y200197D01*
Y100591D02*
X616904D01*
Y67520D02*
Y100591D01*
Y67520D02*
X662623D01*
Y100591D01*
X680118D01*
X123031Y148622D02*
X172244D01*
Y99410D02*
Y148622D01*
X123031Y99410D02*
X172244D01*
X123031D02*
Y148622D01*
D22*
X237205Y264764D02*
Y275590D01*
Y264764D02*
X265748Y236221D01*
X177165Y226378D02*
X251969D01*
X265748Y137795D02*
Y236221D01*
X417323Y413386D02*
X463583D01*
X407480Y423228D02*
X417323Y413386D01*
X463583Y374016D02*
Y413386D01*
X313976Y177165D02*
X320627D01*
X326532Y183071D01*
X313976Y177165D02*
Y248643D01*
X306871Y255748D02*
X313976Y248643D01*
X304290Y255748D02*
X306871D01*
X296260Y177165D02*
Y209646D01*
X279528Y226378D02*
X296260Y209646D01*
X379875Y423182D02*
X379921Y423228D01*
X265748Y379921D02*
X281496D01*
X324803Y423228D01*
Y482283D01*
X364173Y191929D02*
X364353D01*
X363960Y201772D02*
X364173D01*
Y171260D02*
Y191929D01*
X501968Y118110D02*
Y137795D01*
X491142Y148622D02*
Y167323D01*
Y148622D02*
X501968Y137795D01*
X521654Y118110D02*
X524213D01*
X569488Y163386D01*
X580709D01*
X607677Y167717D02*
X671850D01*
X580709Y163386D02*
X601855D01*
X606186Y167717D01*
X607677D01*
X633858Y190945D02*
X639764Y196850D01*
X580709Y190945D02*
X633858D01*
X639764Y196850D02*
Y226378D01*
X589567Y241284D02*
Y265748D01*
X586614Y226378D02*
Y238331D01*
X589567Y241284D01*
X586614Y226378D02*
X586614Y226378D01*
X589567Y265748D02*
Y296260D01*
X614173Y226378D02*
X624016Y236221D01*
X639764D01*
X580551Y305276D02*
X589567Y296260D01*
X561024Y305276D02*
X580551D01*
X496434D02*
X530709D01*
X492339Y301181D02*
X496434Y305276D01*
X492126Y301181D02*
X492339D01*
X492126Y285433D02*
Y301181D01*
X472441Y236221D02*
Y265748D01*
X492126Y285433D01*
X472441Y168520D02*
Y208661D01*
Y168520D02*
X473425Y167536D01*
Y167323D02*
Y167536D01*
X562008Y275590D02*
X571850Y265748D01*
X532480Y275590D02*
X562008D01*
X522638Y265748D02*
X532480Y275590D01*
X521654Y226378D02*
Y264551D01*
X522638Y265535D01*
Y265748D01*
X501968Y226378D02*
X521654D01*
X452756Y196850D02*
Y224072D01*
X455062Y226378D02*
X501968D01*
X452756Y224072D02*
X455062Y226378D01*
X392520Y136614D02*
X452756Y196850D01*
X344488Y118110D02*
X347047D01*
X365551Y136614D01*
X392520D01*
X171372Y344481D02*
Y363248D01*
Y344481D02*
X177165Y338688D01*
Y338583D02*
Y338688D01*
X171372Y363248D02*
X171387Y363263D01*
Y390207D01*
X171402Y390222D01*
X171260Y413386D02*
X171331Y413315D01*
Y390293D02*
Y413315D01*
Y390293D02*
X171402Y390222D01*
X177165Y274606D02*
Y311024D01*
Y226378D02*
Y256890D01*
X167323Y137795D02*
Y216535D01*
X177165Y226378D01*
X127953Y137795D02*
X136433D01*
X143520Y130709D01*
X151598D01*
X158685Y137795D01*
X167323D01*
X296638D02*
X305118D01*
X289551Y130709D02*
X296638Y137795D01*
X281473Y130709D02*
X289551D01*
X274386Y137795D02*
X281473Y130709D01*
X265748Y137795D02*
X274386D01*
X236221D02*
Y158465D01*
X196850Y137795D02*
X205331D01*
X212417Y130709D01*
X220496D01*
X227582Y137795D01*
X236221D01*
X551181Y474016D02*
Y482283D01*
X463583Y370087D02*
X469497Y364173D01*
X483408D01*
X463583Y370087D02*
Y374016D01*
X483408Y364173D02*
X492126Y372891D01*
Y393701D01*
Y328740D02*
Y363426D01*
X511574Y382874D01*
X537138Y374016D02*
X551181D01*
X533201Y377953D02*
X537138Y374016D01*
X532988Y377953D02*
X533201D01*
X511574Y382874D02*
X527854D01*
X532775Y377953D01*
X532988D01*
X492126Y393701D02*
X551181Y452756D01*
X639764D01*
X557874Y471850D02*
X568307Y482283D01*
X481316Y394685D02*
X557874Y471243D01*
Y471850D01*
X568307Y482283D02*
X570866D01*
X481299Y394685D02*
X481316D01*
X490551Y413386D02*
X551181Y474016D01*
X481299Y413386D02*
X490551D01*
X570866Y482283D02*
X590551D01*
X666732D02*
X669291D01*
X649606Y462598D02*
Y482283D01*
X639764Y452756D02*
X649606Y462598D01*
X472441Y403543D02*
Y482283D01*
X481299Y374016D02*
Y394685D01*
X472441Y403543D02*
X481299Y394685D01*
X354331Y464905D02*
Y482283D01*
X358606Y460630D02*
X374016D01*
X354331Y464905D02*
X358606Y460630D01*
X344488Y492126D02*
X354331Y482283D01*
X317520Y492126D02*
X344488D01*
X305118Y482283D02*
X307677D01*
X317520Y492126D01*
X393701Y403543D02*
Y460630D01*
X393701Y460630D02*
X393701Y460630D01*
X393701Y460630D02*
Y484252D01*
X285433Y463015D02*
Y482283D01*
X284449Y462031D02*
X285433Y463015D01*
X284449Y442913D02*
Y462031D01*
X246030Y482283D02*
X285433D01*
X226345D02*
X246030D01*
X266240Y407972D02*
Y442421D01*
X255906Y442913D02*
X266732D01*
X246063Y433071D02*
X255906Y442913D01*
X178150D02*
X187992Y433071D01*
X246063D01*
X157480Y442913D02*
X178150D01*
X146621Y453773D02*
Y482283D01*
Y453773D02*
X157480Y442913D01*
X195866D02*
X206660Y453708D01*
Y482283D01*
X166306D02*
X206660D01*
D23*
X266240Y442421D02*
X266732Y442913D01*
X265748Y407480D02*
X266240Y407972D01*
D24*
X552681Y442568D02*
Y434571D01*
X556680D01*
X558013Y435904D01*
Y437237D01*
X556680Y438570D01*
X552681D01*
X556680D01*
X558013Y439902D01*
Y441235D01*
X556680Y442568D01*
X552681D01*
X562011Y434571D02*
X564677D01*
X566010Y435904D01*
Y438570D01*
X564677Y439902D01*
X562011D01*
X560678Y438570D01*
Y435904D01*
X562011Y434571D01*
X574008Y442568D02*
Y434571D01*
X570009D01*
X568676Y435904D01*
Y438570D01*
X570009Y439902D01*
X574008D01*
X578006D02*
X580672D01*
X582005Y438570D01*
Y434571D01*
X578006D01*
X576673Y435904D01*
X578006Y437237D01*
X582005D01*
X584671Y434571D02*
Y442568D01*
Y437237D02*
X588669Y439902D01*
X584671Y437237D02*
X588669Y434571D01*
X600666Y442568D02*
Y441235D01*
X603331Y438570D01*
X605997Y441235D01*
Y442568D01*
X603331Y438570D02*
Y434571D01*
X608663D02*
Y435904D01*
X609996D01*
Y434571D01*
X608663D01*
X615328Y442568D02*
Y441235D01*
X617993Y438570D01*
X620659Y441235D01*
Y442568D01*
X617993Y438570D02*
Y434571D01*
X623325D02*
Y435904D01*
X624658D01*
Y434571D01*
X623325D01*
X637987Y442568D02*
Y434571D01*
X641986D01*
X643318Y435904D01*
Y441235D01*
X641986Y442568D01*
X637987D01*
X645984D02*
Y434571D01*
Y437237D01*
X651316Y442568D01*
X647317Y438570D01*
X651316Y434571D01*
X653982Y438570D02*
X659313D01*
X661979Y435904D02*
X663312Y434571D01*
X665978D01*
X667311Y435904D01*
Y441235D01*
X665978Y442568D01*
X663312D01*
X661979Y441235D01*
Y439902D01*
X663312Y438570D01*
X667311D01*
X675308Y434571D02*
X669977D01*
X675308Y439902D01*
Y441235D01*
X673975Y442568D01*
X671309D01*
X669977Y441235D01*
D25*
X137795Y383858D02*
D03*
X649606Y482283D02*
D03*
X629921D02*
D03*
X570866D02*
D03*
X551181D02*
D03*
X492126D02*
D03*
X472441D02*
D03*
X393701Y484252D02*
D03*
X374016D02*
D03*
Y460630D02*
D03*
X393701D02*
D03*
X413386D02*
D03*
X305118Y482283D02*
D03*
X285433D02*
D03*
X226345D02*
D03*
X206660D02*
D03*
X146621D02*
D03*
X126936D02*
D03*
X364173Y118110D02*
D03*
X383858D02*
D03*
X521654D02*
D03*
X541339D02*
D03*
X530709Y315276D02*
D03*
Y305276D02*
D03*
Y295276D02*
D03*
X561024Y325276D02*
D03*
Y315276D02*
D03*
Y305276D02*
D03*
Y295276D02*
D03*
X273975Y265748D02*
D03*
Y255748D02*
D03*
Y245748D02*
D03*
X304290Y275748D02*
D03*
Y265748D02*
D03*
Y255748D02*
D03*
Y245748D02*
D03*
D26*
X137795Y393701D02*
D03*
X669291Y482283D02*
D03*
X590551D02*
D03*
X511811D02*
D03*
X413386Y484252D02*
D03*
X324803Y482283D02*
D03*
X246030D02*
D03*
X166306D02*
D03*
X344488Y118110D02*
D03*
X501968D02*
D03*
X530709Y325276D02*
D03*
X273975Y275748D02*
D03*
D27*
X364173Y201772D02*
D03*
Y191929D02*
D03*
X614173Y226378D02*
D03*
X586614D02*
D03*
X189119Y390222D02*
D03*
X171402D02*
D03*
X171372Y363248D02*
D03*
X198931D02*
D03*
X177165Y311024D02*
D03*
Y338583D02*
D03*
X265748Y108268D02*
D03*
Y118110D02*
D03*
X285433Y137795D02*
D03*
X305118Y108268D02*
D03*
Y118110D02*
D03*
X196850Y108268D02*
D03*
Y118110D02*
D03*
X216535Y137795D02*
D03*
X236221Y108268D02*
D03*
Y118110D02*
D03*
X364173Y171260D02*
D03*
Y143701D02*
D03*
X639764Y236221D02*
D03*
Y226378D02*
D03*
X580709Y163386D02*
D03*
Y190945D02*
D03*
X589567Y265748D02*
D03*
X571850D02*
D03*
X491142Y167323D02*
D03*
X473425D02*
D03*
X472441Y208661D02*
D03*
Y236221D02*
D03*
X540354Y265748D02*
D03*
X522638D02*
D03*
X521654Y226378D02*
D03*
Y187008D02*
D03*
X501968D02*
D03*
Y226378D02*
D03*
X492126Y328740D02*
D03*
Y301181D02*
D03*
X551181Y346457D02*
D03*
Y374016D02*
D03*
X532988Y350394D02*
D03*
Y377953D02*
D03*
X511574Y365158D02*
D03*
Y382874D02*
D03*
X236221Y158465D02*
D03*
Y176181D02*
D03*
X407480Y423228D02*
D03*
X379921D02*
D03*
X481299Y374016D02*
D03*
X463583D02*
D03*
X481299Y413386D02*
D03*
X463583D02*
D03*
X326532Y210630D02*
D03*
Y183071D02*
D03*
X393701Y403543D02*
D03*
Y375984D02*
D03*
X313976Y177165D02*
D03*
X296260D02*
D03*
X279528Y226378D02*
D03*
X251969D02*
D03*
X177165Y274606D02*
D03*
Y256890D02*
D03*
X237205Y275590D02*
D03*
X254921D02*
D03*
X143701Y413386D02*
D03*
X171260D02*
D03*
X265748Y407480D02*
D03*
Y379921D02*
D03*
X284449Y442913D02*
D03*
X266732D02*
D03*
X127953Y108268D02*
D03*
Y118110D02*
D03*
X147638Y137795D02*
D03*
X167323Y108268D02*
D03*
Y118110D02*
D03*
X195866Y442913D02*
D03*
X178150D02*
D03*
D28*
X285433Y118110D02*
D03*
X216535D02*
D03*
X147638D02*
D03*
D29*
X305118Y137795D02*
D03*
X265748D02*
D03*
X236221D02*
D03*
X196850D02*
D03*
X167323D02*
D03*
X127953D02*
D03*
D30*
X671850Y118110D02*
D03*
D31*
Y167717D02*
D03*
X607677Y118110D02*
D03*
Y167717D02*
D03*
M02*
