G04*
G04 #@! TF.GenerationSoftware,Altium Limited,Altium Designer,20.2.7 (254)*
G04*
G04 Layer_Color=8421504*
%FSLAX25Y25*%
%MOIN*%
G70*
G04*
G04 #@! TF.SameCoordinates,07DD798B-C11C-458A-AB0E-1EECFAB96A1D*
G04*
G04*
G04 #@! TF.FilePolarity,Positive*
G04*
G01*
G75*
%ADD10C,0.01000*%
%ADD11C,0.00787*%
%ADD12C,0.00500*%
%ADD13C,0.00000*%
%ADD14C,0.00197*%
D10*
X261807Y68889D02*
X257807D01*
Y70888D01*
X258474Y71555D01*
X259807D01*
X260473Y70888D01*
Y68889D01*
X258474Y75554D02*
X257807Y74888D01*
Y73555D01*
X258474Y72888D01*
X261140D01*
X261807Y73555D01*
Y74888D01*
X261140Y75554D01*
X257807Y76888D02*
X261807D01*
Y78887D01*
X261140Y79554D01*
X260473D01*
X259807Y78887D01*
Y76888D01*
Y78887D01*
X259140Y79554D01*
X258474D01*
X257807Y78887D01*
Y76888D01*
X261807Y86886D02*
Y85553D01*
X261140Y84886D01*
X259807D01*
X259140Y85553D01*
Y86886D01*
X259807Y87553D01*
X260473D01*
Y84886D01*
X257807Y91552D02*
X261807D01*
Y89552D01*
X261140Y88886D01*
X259807D01*
X259140Y89552D01*
Y91552D01*
X263140Y94218D02*
Y94885D01*
X262473Y95552D01*
X259140D01*
Y93552D01*
X259807Y92885D01*
X261140D01*
X261807Y93552D01*
Y95552D01*
Y98884D02*
Y97551D01*
X261140Y96885D01*
X259807D01*
X259140Y97551D01*
Y98884D01*
X259807Y99551D01*
X260473D01*
Y96885D01*
X192909Y68889D02*
X188909D01*
Y70888D01*
X189576Y71555D01*
X190909D01*
X191576Y70888D01*
Y68889D01*
X189576Y75554D02*
X188909Y74888D01*
Y73555D01*
X189576Y72888D01*
X192242D01*
X192909Y73555D01*
Y74888D01*
X192242Y75554D01*
X188909Y76888D02*
X192909D01*
Y78887D01*
X192242Y79554D01*
X191576D01*
X190909Y78887D01*
Y76888D01*
Y78887D01*
X190243Y79554D01*
X189576D01*
X188909Y78887D01*
Y76888D01*
X192909Y86886D02*
Y85553D01*
X192242Y84886D01*
X190909D01*
X190243Y85553D01*
Y86886D01*
X190909Y87553D01*
X191576D01*
Y84886D01*
X188909Y91552D02*
X192909D01*
Y89552D01*
X192242Y88886D01*
X190909D01*
X190243Y89552D01*
Y91552D01*
X194242Y94218D02*
Y94885D01*
X193576Y95552D01*
X190243D01*
Y93552D01*
X190909Y92885D01*
X192242D01*
X192909Y93552D01*
Y95552D01*
Y98884D02*
Y97551D01*
X192242Y96885D01*
X190909D01*
X190243Y97551D01*
Y98884D01*
X190909Y99551D01*
X191576D01*
Y96885D01*
X124011Y68889D02*
X120012D01*
Y70888D01*
X120678Y71555D01*
X122012D01*
X122678Y70888D01*
Y68889D01*
X120678Y75554D02*
X120012Y74888D01*
Y73555D01*
X120678Y72888D01*
X123345D01*
X124011Y73555D01*
Y74888D01*
X123345Y75554D01*
X120012Y76888D02*
X124011D01*
Y78887D01*
X123345Y79554D01*
X122678D01*
X122012Y78887D01*
Y76888D01*
Y78887D01*
X121345Y79554D01*
X120678D01*
X120012Y78887D01*
Y76888D01*
X124011Y86886D02*
Y85553D01*
X123345Y84886D01*
X122012D01*
X121345Y85553D01*
Y86886D01*
X122012Y87553D01*
X122678D01*
Y84886D01*
X120012Y91552D02*
X124011D01*
Y89552D01*
X123345Y88886D01*
X122012D01*
X121345Y89552D01*
Y91552D01*
X125345Y94218D02*
Y94885D01*
X124678Y95552D01*
X121345D01*
Y93552D01*
X122012Y92885D01*
X123345D01*
X124011Y93552D01*
Y95552D01*
Y98884D02*
Y97551D01*
X123345Y96885D01*
X122012D01*
X121345Y97551D01*
Y98884D01*
X122012Y99551D01*
X122678D01*
Y96885D01*
D11*
X682992Y117953D02*
G03*
X682992Y117953I-394J0D01*
G01*
D12*
X261811Y104331D02*
Y147638D01*
X309055D01*
Y104331D02*
Y147638D01*
X261811Y104331D02*
X267717D01*
Y100394D02*
Y104331D01*
Y100394D02*
X277559D01*
Y105118D01*
X293307D01*
Y100394D02*
Y105118D01*
Y100394D02*
X303150D01*
Y104331D01*
X309055D01*
X192913D02*
Y147638D01*
X240158D01*
Y104331D02*
Y147638D01*
X192913Y104331D02*
X198819D01*
Y100394D02*
Y104331D01*
Y100394D02*
X208661D01*
Y105118D01*
X224410D01*
Y100394D02*
Y105118D01*
Y100394D02*
X234252D01*
Y104331D01*
X240158D01*
X679134Y101575D02*
Y199213D01*
X600394D02*
X679134D01*
X600394Y101575D02*
Y199213D01*
Y101575D02*
X617889D01*
Y68504D02*
Y101575D01*
Y68504D02*
X661639D01*
Y101575D01*
X679134D01*
X617889D02*
X661639D01*
X124016Y104331D02*
Y147638D01*
X171260D01*
Y104331D02*
Y147638D01*
X124016Y104331D02*
X129921D01*
Y100394D02*
Y104331D01*
Y100394D02*
X139764D01*
Y105118D01*
X155512D01*
Y100394D02*
Y105118D01*
Y100394D02*
X165354D01*
Y104331D01*
X171260D01*
D13*
X261811Y100394D02*
X277559D01*
Y105118D01*
X293307D01*
Y100394D02*
Y105118D01*
Y100394D02*
X309055D01*
X192913D02*
X208661D01*
Y105118D01*
X224410D01*
Y100394D02*
Y105118D01*
Y100394D02*
X240158D01*
X124016D02*
X139764D01*
Y105118D01*
X155512D01*
Y100394D02*
Y105118D01*
Y100394D02*
X171260D01*
D14*
X260827Y148622D02*
X310039D01*
Y99410D02*
Y148622D01*
X260827Y99410D02*
X310039D01*
X260827D02*
Y148622D01*
X191929D02*
X241142D01*
Y99410D02*
Y148622D01*
X191929Y99410D02*
X241142D01*
X191929D02*
Y148622D01*
X680118Y100591D02*
Y200197D01*
X599409D02*
X680118D01*
X599409Y100591D02*
Y200197D01*
Y100591D02*
X616904D01*
Y67520D02*
Y100591D01*
Y67520D02*
X662623D01*
Y100591D01*
X680118D01*
X123031Y148622D02*
X172244D01*
Y99410D02*
Y148622D01*
X123031Y99410D02*
X172244D01*
X123031D02*
Y148622D01*
M02*
